<svg width="285" height="274" viewBox="0 0 285 274" fill="none" xmlns="http://www.w3.org/2000/svg">
<path d="M7.21342 0.770996L29.5925 0.771004C89.4576 0.771026 247.312 0.771085 270.861 0.770996C299.175 0.770889 278.951 277.656 249.534 272.876C220.117 268.096 38.8364 247.136 20.0833 216.249C1.33007 185.361 -5.6564 0.770996 7.21342 0.770996Z" fill="#FFFCE4"/>
<path d="M7.21342 0.770996C-5.6564 0.770996 1.33007 185.361 20.0833 216.249C38.8364 247.136 220.117 268.096 249.534 272.876C278.951 277.656 299.175 0.770889 270.861 0.770996C247.312 0.771085 89.4577 0.771026 29.5925 0.771004M7.21342 0.770996L29.5925 0.771004M7.21342 0.770996C9.37915 0.770996 17.4802 0.770999 29.5925 0.771004" stroke="#FFFEF5" stroke-opacity="0.67"/>
</svg>
